/* XPM */
static char *cursor_day[] = {
    "24 24 3 1 ",
    "  c #00b140",
    ". c #000000",
    "# c #ffffff",
    /* pixels */
    "                        ",
    "   ..                   ",
    "   ...                  ",
    "   ....                 ",
    "   .....                ",
    "   ..#...               ",
    "   ..###...             ",
    "   ..####...            ",
    "   ..#####...           ",
    "   ..######...          ",
    "   ..#######...         ",
    "   ..#########...       ",
    "   ..##########...      ",
    "   ..####..........     ",
    "   ..###............    ",
    "   ..##...              ",
    "   ..##..               ",
    "   ..#..                ",
    "   ....                 ",
    "   ....                 ",
    "   ...                  ",
    "   ..                   ",
    "   .                    ",
    "                        "
};

static char *cursor_night[] = {
    "24 24 3 1 ",
    "  c #00b140",
    ". c #ffffff",
    "# c #000000",
    /* pixels */
    "                        ",
    "   ..                   ",
    "   ...                  ",
    "   ....                 ",
    "   .....                ",
    "   ..#...               ",
    "   ..###...             ",
    "   ..####...            ",
    "   ..#####...           ",
    "   ..######...          ",
    "   ..#######...         ",
    "   ..#########...       ",
    "   ..##########...      ",
    "   ..####..........     ",
    "   ..###............    ",
    "   ..##...              ",
    "   ..##..               ",
    "   ..#..                ",
    "   ....                 ",
    "   ....                 ",
    "   ...                  ",
    "   ..                   ",
    "   .                    ",
    "                        "
};

static char *precise_day[] = {
    "24 24 2 1 ",
    "  c #00b140",
    ". c #000000",
    "           ..           ",
    "           ..           ",
    "           ..           ",
    "           ..           ",
    "           ..           ",
    "           ..           ",
    "           ..           ",
    "           ..           ",
    "           ..           ",
    "                        ",
    "                        ",
    ".........  ..  .........",
    ".........  ..  .........",
    "                        ",
    "                        ",
    "           ..           ",
    "           ..           ",
    "           ..           ",
    "           ..           ",
    "           ..           ",
    "           ..           ",
    "           ..           ",
    "           ..           ",
    "           ..           "
};

static char *precise_night[] = {
    "24 24 2 1 ",
    "  c #00b140",
    ". c #ffffff",
    "           ..           ",
    "           ..           ",
    "           ..           ",
    "           ..           ",
    "           ..           ",
    "           ..           ",
    "           ..           ",
    "           ..           ",
    "           ..           ",
    "                        ",
    "                        ",
    ".........  ..  .........",
    ".........  ..  .........",
    "                        ",
    "                        ",
    "           ..           ",
    "           ..           ",
    "           ..           ",
    "           ..           ",
    "           ..           ",
    "           ..           ",
    "           ..           ",
    "           ..           ",
    "           ..           "
};

static char *hand_day[] = {
    "24 24 3 1 ",
    "  c #00b140",
    ". c #000000",
    "# c #ffffff",
    "         ..             ",
    "        .##.            ",
    "        .##.            ",
    "        .##.            ",
    "        .##.            ",
    "        .##.            ",
    "        .##....         ",
    "        .##.##....      ",
    "        .##.##..##...   ",
    "        .##.##.###.##.  ",
    "        .#####.###.##.  ",
    "    .   .#########.##.  ",
    "  ..#.. .############.  ",
    "  .###...############.  ",
    "   .###..############.  ",
    "    .################.  ",
    "     .###############.  ",
    "      .##############.  ",
    "       .#############.  ",
    "        .###########..  ",
    "         .##########.   ",
    "          .########.    ",
    "           ..####..     ",
    "            .....       "
};

static char *hand_night[] = {
    "24 24 3 1 ",
    "  c #00b140",
    ". c #ffffff",
    "# c #000000",
    "         ..             ",
    "        .##.            ",
    "        .##.            ",
    "        .##.            ",
    "        .##.            ",
    "        .##.            ",
    "        .##....         ",
    "        .##.##....      ",
    "        .##.##..##...   ",
    "        .##.##.###.##.  ",
    "        .#####.###.##.  ",
    "    .   .#########.##.  ",
    "  ..#.. .############.  ",
    "  .###...############.  ",
    "   .###..############.  ",
    "    .################.  ",
    "     .###############.  ",
    "      .##############.  ",
    "       .#############.  ",
    "        .###########..  ",
    "         .##########.   ",
    "          .########.    ",
    "           ..####..     ",
    "            .....       "
};
