/* XPM */
static char *guessBox[] = {
/* columns rows colors chars-per-pixel */
"22 22 2 1 ",
"  c #000000",
". c #56F1E8",
/* pixels */
"                      ",
" .................... ",
" .................... ",
" .................... ",
" .................... ",
" .................... ",
" .................... ",
" .................... ",
" .................... ",
" .................... ",
" .................... ",
" .................... ",
" .................... ",
" .................... ",
" .................... ",
" .................... ",
" .................... ",
" .................... ",
" .................... ",
" .................... ",
" .................... ",
"                      "
};
