/* XPM */
static char *guessRight[] = {
/* columns rows colors chars-per-pixel */
"22 22 8 1 ",
"  c #020202",
". c #060606",
"X c #090909",
"o c #0d0d0d",
"O c #111111",
"+ c #151515",
"@ c #1a1a1a",
"# c #00b140",
/* pixels */
"######################",
"######################",
"###################O##",
"##################O.##",
"#################+ @##",
"################@.@###",
"################ O####",
"###############Xo#####",
"##############o.######",
"#############+.@######",
"############@ +#######",
"##+@########.O########",
"##+X#######oo#########",
"###X+#####o ##########",
"###+X####+.@##########",
"####X+##@.+###########",
"####+X## O############",
"#####.+oo#############",
"#####O .##############",
"######X@##############",
"######################",
"######################"
};
