/* XPM */
static char *guessCross[] = {
/* columns rows colors chars-per-pixel */
"22 22 2 1 ",
"  c #00b140",
". c #000000",
/* pixels */
"                      ",
"                      ",
"                      ",
"   .              .   ",
"    .            .    ",
"     .          .     ",
"      .        .      ",
"       .      .       ",
"        .    .        ",
"         .  .         ",
"          ..          ",
"          ..          ",
"         .  .         ",
"        .    .        ",
"       .      .       ",
"      .        .      ",
"     .          .     ",
"    .            .    ",
"   .              .   ",
"  .                .  ",
"                      ",
"                      "
};
