/* XPM */
static char *waitingDrawingLight[] = {
/* columns rows colors chars-per-pixel */
"246 67 2 1 ",
"  c #00b140",
". c #000000",
/* pixels */
"   .........   .............                                                                                                                                      .....                                                                               ",
"  ..........  .................                                                                                                                                 .........                                                                             ",
" ...........  ..................                                                                                                                                ..........                                                                            ",
" ...........  ...................                                                                                                                              ...........                                                                            ",
" ...........  ...................                                                                                                                              ...........                                                                            ",
" ...........  ....................                                                                                                                             ...........                                                                            ",
" ...........  ....................                                                                                                                             ...........                                                                            ",
" ...........          ............                                                                                                                             ...........                                                                            ",
" ...........          ............                                                                                                                              ..........                                                                            ",
" ...........          ............                                                                                                                              .........                                                                             ",
" ...........          ............                                                                                                                                                                                                                    ",
" ...........          ............                                                                                                                                                                                                                    ",
" ...........          ............                                                                                                                                                                                                                    ",
" ...........          ............                                                                                                                                                                                                                    ",
" ...........          ............                                                                                                                                                                                                                    ",
" ...........          ............                                                                                                                                                                                                                    ",
" ...........          ............             ............           ............  ......             .........          .........          ..........         .......           .......     ..............                 ............  .......    ",
" ...........          ............           ..............        ...............  ........           ..........         ..........         ..........         ........          .........   ...............             ...............  .........  ",
" ...........          ............          ...............       ................  .........          ..........         ..........         ...........        .........         ..........  ................           ................  .......... ",
" ...........          ............          ...............       ................  ..........         ..........         ..........         ...........        ..........        ..........  .................          ................  .......... ",
" ...........          ............         ................      .................  ..........         ..........         ..........         ...........        ..........        ........... .................         .................  .......... ",
" ...........          ............         ...........           ...........        ..........         ..........         ..........         ...........        ..........        ...........       ............        ...........        .......... ",
" ...........          ............         ...........           ..........         ..........         ..........         ..........         ...........        ..........        ...........        ...........        ..........         .......... ",
" ...........          ............         ...........           ..........         ..........         ..........         ..........         ...........        ..........        ...........        ...........        ..........         .......... ",
" ...........          ............         ...........          ...........         ..........         ..........         ..........         ...........        ..........        ...........        ...........        ..........         .......... ",
" ...........          ............         ...........          ...........         ..........         ..........         ..........         ...........        ..........        ...........        ...........       ...........         .......... ",
" ...........          ............         ...........          ...........         ..........         ..........         ..........         ...........        ..........        ...........        ...........       ...........         .......... ",
" ...........          ............         ...........          ...........         ..........         ..........         ..........         ...........        ..........        ...........        ...........       ...........         .......... ",
" ...........          ............         ...........          ...........         ..........         ..........         ..........         ...........        ..........        ...........        ...........       ...........         .......... ",
" ...........          ............         ...........          ...........         ..........         ..........         ..........         ...........        ..........        ...........        ...........       ...........         .......... ",
" ...........          ............         ...........          ...........         ..........         ..........         ..........         ...........        ..........        ...........        ...........       ...........         .......... ",
" ...........          ............         ...........          ...........         ..........         ..........         ..........         ...........        ..........        ...........        ...........       ...........         .......... ",
" ...........          ............         ...........          ...........         ..........         ..........         ..........         ...........        ..........        ...........        ...........       ...........         .......... ",
" ...........          ............         ...........          ...........         ..........         ..........         ..........         ...........        ..........        ...........        ...........       ...........         .......... ",
" ...........          ............         ...........          ...........         ..........         ..........         ..........         ...........        ..........        ...........        ...........       ...........         .......... ",
" ...........          ............         ...........          ...........         ..........         ..........         ..........         ...........        ..........        ...........        ...........       ...........         .......... ",
" ...........          ............         ...........          ...........         ..........         ..........         ..........         ...........        ..........        ...........        ...........       ...........         .......... ",
" ...........          ............         ...........          ...........         ..........         ..........         ..........         ...........        ..........        ...........        ...........       ...........         .......... ",
" ...........          ............         ...........          ...........         ..........         ..........         ..........         ...........        ..........        ...........        ...........       ...........         .......... ",
" ...........          ............         ...........          ...........         ..........         ..........         ..........         ...........        ..........        ...........        ...........       ...........         .......... ",
" ...........          ............         ...........          ...........         ..........         ..........         ..........         ...........        ..........        ...........        ...........       ...........         .......... ",
" ...........          ............         ...........          ...........         ..........         ..........         ..........         ...........        ..........        ...........        ...........       ...........         .......... ",
" ...........          ............         ...........           ..........         ..........         ..........         ..........         ...........        ..........        ...........        ...........        ..........         .......... ",
" ...........          ............         ...........           ..........         ..........         ..........         ..........         ...........        ..........        ...........        ...........        ..........         .......... ",
" ...........   ...................         ...........           ..........         ...........        ...........        ...........        ...........        ..........        ...........        ...........        ..........         .......... ",
" ...........  ....................         ...........           ...........        ...........        ...........        ...........        ...........        ..........        ...........        ...........        ...........        .......... ",
" ...........  ...................          ..........            .................  ..............     .................  .................  ...........        ..........        ...........        ...........        .................  .......... ",
" ...........  ...................          ..........             ................   .............      ................   ................  ..........         ..........        ...........        ...........         ................  .......... ",
" ...........  ..................           ..........             ................   .............      ................   ................  ..........         ..........        ...........        ...........         ................  .......... ",
" ...........  .................            .........               ...............    ............       ...............    ...............  .........          ..........        ...........         ..........          ...............  .......... ",
"  ..........  ...............              .......                   .............      ..........         .............      .............  ........           ..........         ..........         ..........            .............  .......... ",
"                                                                                                                                                                                                                                           .......... ",
"                                                                                                                                                                                                                                           .......... ",
"                                                                                                                                                                                                                                           .......... ",
"                                                                                                                                                                                                                                           .......... ",
"                                                                                                                                                                                                                         .........         .......... ",
"                                                                                                                                                                                                                        ...........        .......... ",
"                                                                                                                                                                                                                        ...........        .......... ",
"                                                                                                                                                                                                                        ...........        .......... ",
"                                                                                                                                                                                                                        ...........        .......... ",
"                                                                                                                                                                                                                        ...........        .......... ",
"                                                                                                                                                                                                                         ................  .......... ",
"                                                                                                                                                                                                                         ................  .......... ",
"                                                                                                                                                                                                                         ................  .......... ",
"                                                                                                                                                                                                                          ...............  .........  ",
"                                                                                                                                                                                                                           ..............  ........   ",
"                                                                                                                                                                                                                               .........   ......     "
};
