/* XPM */
static char *waitingGuessingLight[] = {
/* columns rows colors chars-per-pixel */
"275 67 2 1 ",
"  c #00b140",
". c #000000",
/* pixels */
"         ....   ...........                                                                                                                                                                     .....                                                                              ",
"      .......   ...............                                                                                                                                                              ..........                                                                            ",
"    .........   .................                                                                                                                                                            ..........                                                                            ",
"   ..........   ..................                                                                                                                                                           ..........                                                                            ",
"   ..........   ..................                                                                                                                                                           ..........                                                                            ",
"  ...........   ...................                                                                                                                                                          ..........                                                                            ",
"  ...........   ...................                                                                                                                                                          ..........                                                                            ",
" ............          ............                                                                                                                                                          ..........                                                                            ",
" ............           ...........                                                                                                                                                          ..........                                                                            ",
" ............           ...........                                                                                                                                                           .........                                                                            ",
" ............           ...........                                                                                                                                                                                                                                                ",
" ............           ...........                                                                                                                                                                                                                                                ",
" ............           ...........                                                                                                                                                                                                                                                ",
" ............           ...........                                                                                                                                                                                                                                                ",
" ............           ...........                                                                                                                                                                                                                                                ",
".............           ...........                                                                                                                                                                                                                                                ",
".............                              ..........         ..........               .....  .............               ......  ............                .....  .............           .......            .......     .............                 ............  ........   ",
".............                              ...........        ...........           ........  ..............            ........  ..............           ........  ..............          .........          ........    ...............             ..............  .........  ",
".............                              ...........        ...........          .........  ...............          .........  ...............         .........  ...............         ..........         .........   ................           ...............  .......... ",
".............                              ...........        ...........          .........  ................        ..........  ................       ..........  ................        ..........         ..........  .................         ................  ...........",
".............                              ...........        ...........         ..........  ................        ..........  ................       ..........  ................        ...........        ..........  .................         ................  ...........",
".............                              ...........        ...........         ..........        ...........      ...........       ...........       ..........        ...........       ...........        ..........        ...........        ............       ...........",
".............                              ...........        ...........         ..........        ...........      ...........        ..........       ..........        ...........       ...........        ..........         ..........        ...........        ...........",
".............   ..............             ...........        ...........         ..........        ...........      ...........        ..........       ..........        ...........       ...........        ..........         ..........        ...........        ...........",
".............   .................          ...........        ...........        ...........        ...........      ...........        ..........       ..........        ...........       ...........        ..........         ..........        ...........        ...........",
".............   ..................         ...........        ...........        ...........        ...........      ...........        ..........       ..........        ...........       ...........        ..........         ..........        ...........        ...........",
".............   ..................         ...........        ...........        ...........        ...........      ...........        ..........       ..........        ...........       ...........        ..........         ..........        ...........        ...........",
".............   ...................        ...........        ...........        ...........        ...........      ...........                         ..........                          ...........        ..........         ..........        ...........        ...........",
".............   ...................        ...........        ...........        ...........        ...........      ...........                         ..........                          ...........        ..........         ..........        ...........        ...........",
".............   ...................        ...........        ...........        ...........        ...........      ...........                         ..........                          ...........        ..........         ..........        ...........        ...........",
".............          ............        ...........        ...........        ...........       ............      ...........                         ...........                         ...........        ..........         ..........        ...........        ...........",
".............           ...........        ...........        ...........        ...........  .................       ................  ......           ................  .......           ...........        ..........         ..........        ...........        ...........",
".............           ...........        ...........        ...........        ...........  ................        ................  ........         ................  .........         ...........        ..........         ..........        ...........        ...........",
".............           ...........        ...........        ...........        ...........  ................        ................  .........         ...............  ..........        ...........        ..........         ..........        ...........        ...........",
".............           ...........        ...........        ...........        ...........  ...............          ...............  ..........         ..............  ..........        ...........        ..........         ..........        ...........        ...........",
" ............           ...........        ...........        ...........        ...........  .............              .............  ..........          .............  ...........       ...........        ..........         ..........        ...........        ...........",
" ............           ...........        ...........        ...........        ...........                                            ..........                         ...........       ...........        ..........         ..........        ...........        ...........",
" ............           ...........        ...........        ...........        ...........                                            ..........                         ...........       ...........        ..........         ..........        ...........        ...........",
" ............           ...........        ...........        ...........        ...........                                            ..........                         ...........       ...........        ..........         ..........        ...........        ...........",
" ............           ...........        ...........        ...........        ...........                                            ..........                         ...........       ...........        ..........         ..........        ...........        ...........",
" ............           ...........        ...........        ...........        ...........        ...........       ..........        ..........       ..........        ...........       ...........        ..........         ..........        ...........        ...........",
" ............           ...........        ...........        ...........        ...........        ...........      ...........        ..........       ..........        ...........       ...........        ..........         ..........        ...........        ...........",
" ............           ...........        ...........        ...........         ..........        ...........      ...........        ..........       ..........        ...........       ...........        ..........         ..........        ...........        ...........",
" ............           ...........        ...........        ...........         ..........        ...........      ...........        ..........       ..........        ...........       ...........        ..........         ..........        ...........        ...........",
"  ...................   ...........        ...........        ...........         ..........        ...........      ...........        ..........       ..........        ...........       ...........        ..........         ..........        ...........        ...........",
"  ...................   ...........        ............       ............        ..........        ...........      ............       ..........       ...........       ...........       ...........        ..........         ..........        ............       ...........",
"  ...................   ...........         ................. ..............      ..........  ................        ................  ..........       ................  ..........        ...........        ..........         ..........         ................  ...........",
"   ..................   ...........         .................  .............       .........  ................        ................  ..........        ...............  ..........        ...........        ..........         ..........         ................  ...........",
"    .................   ...........          ................  .............       .........  ...............          ...............  .........         ...............  ..........        ...........        ..........         ..........          ...............  ...........",
"     ................   ..........           ................   ............        ........  ..............            ..............  ........           ..............  ........          ...........        ..........         ..........           ..............  ...........",
"       ..............   ..........             ..............     ..........           .....  .............               ............  .....                ............  ......             ..........        ..........          .........             ............  ...........",
"                                                                                                                                                                                                                                                                        ...........",
"                                                                                                                                                                                                                                                                        ...........",
"                                                                                                                                                                                                                                                                        ...........",
"                                                                                                                                                                                                                                                                        ...........",
"                                                                                                                                                                                                                                                       .........        ...........",
"                                                                                                                                                                                                                                                      ..........        ...........",
"                                                                                                                                                                                                                                                      ..........        ...........",
"                                                                                                                                                                                                                                                      ..........        ...........",
"                                                                                                                                                                                                                                                      ..........        ...........",
"                                                                                                                                                                                                                                                      ...........       ...........",
"                                                                                                                                                                                                                                                      ................  ...........",
"                                                                                                                                                                                                                                                      ................  ...........",
"                                                                                                                                                                                                                                                       ...............  .......... ",
"                                                                                                                                                                                                                                                        ..............  .......... ",
"                                                                                                                                                                                                                                                         .............  .........  ",
"                                                                                                                                                                                                                                                            ..........   .....     "
};
