/* XPM */
static char *A[] = {
/* columns rows colors chars-per-pixel */
"12 15 2 1 ",
"  c #00b140",
". c #000000",
/* pixels */
"     ..     ",
"    ....    ",
"    ....    ",
"    .  ..   ",
"   ..  ..   ",
"   ..  ..   ",
"   .   ..   ",
"  ..    ..  ",
"  ..    ..  ",
"  ........  ",
" .......... ",
" ..      .. ",
" ..      .. ",
" ..      .. ",
"..        .."
};
