/* XPM */
static char *B[] = {
/* columns rows colors chars-per-pixel */
"10 16 2 1 ",
"  c #00b140",
". c #000000",
/* pixels */
".......   ",
"........  ",
"..    ... ",
"..     .. ",
"..     .. ",
"..     .. ",
"........  ",
"........  ",
"..    ... ",
"..     ...",
"..      ..",
"..      ..",
"..     .. ",
"......... ",
"........  ",
"          "
};
