/* XPM */
static char *C[] = {
/* columns rows colors chars-per-pixel */
"11 17 2 1 ",
"  c #00b140",
". c #000000",
/* pixels */
"           ",
"    .....  ",
"  ........ ",
" ...       ",
" ..        ",
"...        ",
"..         ",
"..         ",
"..         ",
"..         ",
"..         ",
"...        ",
" ..        ",
" ...       ",
"  ........ ",
"   ....... ",
"           "
};
