/* XPM */
static char *D[] = {
/* columns rows colors chars-per-pixel */
"11 16 2 1 ",
"  c #00b140",
". c #000000",
/* pixels */
"......     ",
"........   ",
"..    ...  ",
"..     ..  ",
"..      .. ",
"..      .. ",
"..      .. ",
"..      .. ",
"..      .. ",
"..      .. ",
"..      .. ",
"..     ..  ",
"..    ...  ",
"........   ",
".......    ",
"           "
};
