/* XPM */
static char *E[] = {
/* columns rows colors chars-per-pixel */
"10 15 2 1 ",
"  c #00b140",
". c #000000",
/* pixels */
"........  ",
"........  ",
"..        ",
"..        ",
"..        ",
"..        ",
".......   ",
"........  ",
"..        ",
"..        ",
"..        ",
"..        ",
"..        ",
"......... ",
"......... "
};
