/* XPM */
static char *F[] = {
/* columns rows colors chars-per-pixel */
"9 15 2 1 ",
"  c #00b140",
". c #000000",
/* pixels */
".........",
".........",
"..       ",
"..       ",
"..       ",
"..       ",
".......  ",
"........ ",
"..       ",
"..       ",
"..       ",
"..       ",
"..       ",
"..       ",
"..       "
};
