/* XPM */
static char *G[] = {
/* columns rows colors chars-per-pixel */
"10 17 2 1 ",
"  c #00b140",
". c #000000",
/* pixels */
"          ",
"    ..... ",
"  ........",
" ...      ",
" ..       ",
" ..       ",
"..        ",
"..        ",
"..        ",
"..      ..",
"..      ..",
"...     ..",
" ..     ..",
" ...    ..",
"  .... ...",
"   .......",
"          "
};
