/* XPM */
static char *I[] = {
/* columns rows colors chars-per-pixel */
"8 15 2 1 ",
"  c #000000",
". c #00b140",
/* pixels */
"        ",
"        ",
"...  ...",
"...  ...",
"...  ...",
"...  ...",
"...  ...",
"...  ...",
"...  ...",
"...  ...",
"...  ...",
"...  ...",
"...  ...",
"        ",
"        "
};
