/* XPM */
static char *K[] = {
/* columns rows colors chars-per-pixel */
"11 15 2 1 ",
"  c #000000",
". c #00b140",
/* pixels */
". ......  .",
"   ....  ..",
"   ...   ..",
"   ..   ...",
"   ..  ....",
"   .  .....",
"     ......",
"     ......",
"      .....",
"   .   ....",
"   ..   ...",
"   ...   ..",
"   ....  ..",
"   .....  .",
"   .....   "
};
