/* XPM */
static char *N[] = {
/* columns rows colors chars-per-pixel */
"10 15 2 1 ",
"  c #000000",
". c #00b140",
/* pixels */
"  ......  ",
"   .....  ",
"    ....  ",
"    ....  ",
"  .  ...  ",
"  .  ...  ",
"  ..  ..  ",
"  ..  ..  ",
"  ...  .  ",
"  ...  .  ",
"  ....    ",
"  ....    ",
"  .....   ",
"  .....   ",
"  .....   "
};
