/* XPM */
static char *O[] = {
/* columns rows colors chars-per-pixel */
"12 17 2 1 ",
"  c #000000",
". c #00b140",
/* pixels */
"............",
"....    ....",
"..        ..",
"..  ....  ..",
".  ......  .",
".  ......  .",
".  ......  .",
".  ......  .",
".  ......  .",
".  ......  .",
".  ......  .",
".  ......  .",
".  ......  .",
"..  ....  ..",
"..   ..   ..",
"...      ...",
"............"
};
