/* XPM */
static char *Q[] = {
/* columns rows colors chars-per-pixel */
"12 20 2 1 ",
"  c #000000",
". c #00b140",
/* pixels */
"............",
"....    ....",
"..        ..",
"..  ....  ..",
".  ......  .",
".  ......  .",
".  ......  .",
".  ......  .",
".  ......  .",
".  ......  .",
".  ......  .",
".  ......  .",
".  ......  .",
".   ....  ..",
"..   ..   ..",
"...      ...",
".....  .....",
".....   ....",
"......     .",
"........  .."
};
