/* XPM */
static char *S[] = {
/* columns rows colors chars-per-pixel */
"10 17 2 1 ",
"  c #000000",
". c #00b140",
/* pixels */
"..........",
"...      .",
".        .",
".  .......",
".  .......",
".  .......",
".  .......",
"..   .....",
"...    ...",
".....    .",
".......  .",
"........  ",
"........  ",
".......   ",
".  ...   .",
".       ..",
".........."
};
