/* XPM */
static char *T[] = {
/* columns rows colors chars-per-pixel */
"12 15 2 1 ",
"  c #000000",
". c #00b140",
/* pixels */
".          .",
".          .",
".....  .....",
".....  .....",
".....  .....",
".....  .....",
".....  .....",
".....  .....",
".....  .....",
".....  .....",
".....  .....",
".....  .....",
".....  .....",
".....  .....",
".....  ....."
};
