/* XPM */
static char *U[] = {
/* columns rows colors chars-per-pixel */
"10 16 2 1 ",
"  c #000000",
". c #00b140",
/* pixels */
"  ......  ",
"  ......  ",
"  ......  ",
"  ......  ",
"  ......  ",
"  ......  ",
"  ......  ",
"  ......  ",
"  ......  ",
"  ......  ",
"  ......  ",
"  ......  ",
"   ....  .",
".   ..   .",
"..      ..",
".........."
};
