/* XPM */
static char *timer_3[] = {
/* columns rows colors chars-per-pixel */
"44 46 2 1 ",
"  c #00b140",
". c #000000",
/* pixels */
"                                            ",
"                                            ",
"                                            ",
"                                            ",
"                                            ",
"                                            ",
"                                            ",
"                                            ",
"                                            ",
"                                            ",
"               .........  .....             ",
"              ..........  .....             ",
"              ..........  ......            ",
"              ......      ......            ",
"              ......      ......            ",
"              ......      ......            ",
"              ......      ......            ",
"              ......      ......            ",
"               ....       ......            ",
"                          ......            ",
"                          .....             ",
"                     ..........             ",
"                     ..........             ",
"                     ..........             ",
"                     ...........            ",
"                          ......            ",
"                          ......            ",
"               ....       ......            ",
"              ......      ......            ",
"              ......      ......            ",
"              ......      ......            ",
"              ......      ......            ",
"              ......      ......            ",
"              ..........  ......            ",
"              ..........  .....             ",
"               .........  .....             ",
"                                            ",
"                                            ",
"                                            ",
"                                            ",
"                                            ",
"                                            ",
"                                            ",
"                                            ",
"                                            ",
"                                            "
};
