/* XPM */
static char *timer_9[] = {
/* columns rows colors chars-per-pixel */
"44 46 2 1 ",
"  c #000000",
". c #00b140",
/* pixels */
"............................................",
"............................................",
"............................................",
"............................................",
"............................................",
"............................................",
"............................................",
"............................................",
"............................................",
"............................................",
"................    .         ..............",
"..............      .          .............",
"..............      .          .............",
"..............      .           ............",
"..............      ......      ............",
"..............      ......      ............",
"..............      ......      ............",
"..............      ......      ............",
"..............      ......      ............",
"..............      ......      ............",
"..............      ......      ............",
"..............          ..      ............",
"..............          ..      ............",
"...............         ..      ............",
"................        ..      ............",
"..........................      ............",
"..........................      ............",
"..........................      ............",
"..............      ......      ............",
"..............      ......      ............",
"..............      ......      ............",
"..............      ......      ............",
"..............      ......      ............",
"..............          ..      ............",
"..............          ..      ............",
"...............         ..     .............",
"............................................",
"............................................",
"............................................",
"............................................",
"............................................",
"............................................",
"............................................",
"............................................",
"............................................",
"............................................"
};
